<svg xmlns="http://www.w3.org/2000/svg" preserveAspectRatio="xMidYMax slice" style="width:100%;height:100%" viewBox="0 0 512 512"><defs><filter id="p" filterUnits="objectBoundingBox" x="-100%" y="-100%" width="300%" height="300%"><feGaussianBlur stdDeviation="7.23 7.23" edgeMode="duplicate"/></filter><filter id="t" filterUnits="objectBoundingBox" x="-100%" y="-100%" width="300%" height="300%"><feGaussianBlur stdDeviation="0.6 0.6" edgeMode="duplicate"/></filter><filter id="v" filterUnits="objectBoundingBox" x="-100%" y="-100%" width="300%" height="300%"><feGaussianBlur in="SourceAlpha" result="drop_shadow_1" stdDeviation="2"/><feOffset dx="0" dy="0" in="drop_shadow_1" result="drop_shadow_2"/><feFlood flood-color="#00ff81" flood-opacity="1" result="drop_shadow_3"/><feComposite in="drop_shadow_3" in2="drop_shadow_2" operator="in" result="drop_shadow_4"/><feMerge><feMergeNode in="SourceGraphic"/></feMerge><feGaussianBlur in="SourceAlpha" result="drop_shadow_1" stdDeviation="5.5"/><feOffset dx="-1" dy="0" in="drop_shadow_1" result="drop_shadow_2"/><feFlood flood-color="#152026" flood-opacity="1" result="drop_shadow_3"/><feComposite in="drop_shadow_3" in2="drop_shadow_2" operator="in" result="drop_shadow_4"/><feMerge><feMergeNode in="SourceGraphic"/></feMerge><feGaussianBlur in="SourceAlpha" result="drop_shadow_1" stdDeviation="5.5"/><feOffset dx="-1" dy="0" in="drop_shadow_1" result="drop_shadow_2"/><feFlood flood-color="#82d276" flood-opacity="1" result="drop_shadow_3"/><feComposite in="drop_shadow_3" in2="drop_shadow_2" operator="in" result="drop_shadow_4"/><feMerge><feMergeNode in="SourceGraphic"/></feMerge><feGaussianBlur stdDeviation="1.68 1.68" edgeMode="duplicate"/></filter><filter id="b" filterUnits="objectBoundingBox" x="-100%" y="-100%" width="300%" height="300%"><feGaussianBlur stdDeviation="0.6 0.6" edgeMode="duplicate"/></filter><filter id="y" filterUnits="objectBoundingBox" x="-100%" y="-100%" width="300%" height="300%"><feGaussianBlur in="SourceAlpha" result="drop_shadow_1" stdDeviation="2"/><feOffset dx="0" dy="0" in="drop_shadow_1" result="drop_shadow_2"/><feFlood flood-color="#00ff81" flood-opacity="1" result="drop_shadow_3"/><feComposite in="drop_shadow_3" in2="drop_shadow_2" operator="in" result="drop_shadow_4"/><feMerge><feMergeNode/><feMergeNode in="SourceGraphic"/></feMerge><feGaussianBlur in="SourceAlpha" result="drop_shadow_1" stdDeviation="5.5"/><feOffset dx="1" dy="0" in="drop_shadow_1" result="drop_shadow_2"/><feFlood flood-color="#152127" flood-opacity="1" result="drop_shadow_3"/><feComposite in="drop_shadow_3" in2="drop_shadow_2" operator="in" result="drop_shadow_4"/><feMerge><feMergeNode/><feMergeNode in="SourceGraphic"/></feMerge><feGaussianBlur in="SourceAlpha" result="drop_shadow_1" stdDeviation="5.5"/><feOffset dx="-1" dy="0" in="drop_shadow_1" result="drop_shadow_2"/><feFlood flood-color="#82d276" flood-opacity="1" result="drop_shadow_3"/><feComposite in="drop_shadow_3" in2="drop_shadow_2" operator="in" result="drop_shadow_4"/><feMerge><feMergeNode/><feMergeNode in="SourceGraphic"/></feMerge><feGaussianBlur stdDeviation="1.68 1.68" edgeMode="duplicate"/></filter><filter id="d" filterUnits="objectBoundingBox" x="-100%" y="-100%" width="300%" height="300%"><feGaussianBlur stdDeviation="0.6 0.6" edgeMode="duplicate"/></filter><filter id="g" filterUnits="objectBoundingBox" x="-100%" y="-100%" width="300%" height="300%"><feGaussianBlur stdDeviation="0.6 0.6" edgeMode="duplicate"/></filter><filter id="j" filterUnits="objectBoundingBox" x="-100%" y="-100%" width="300%" height="300%"><feGaussianBlur stdDeviation="0.6 0.6" edgeMode="duplicate"/></filter><filter id="H" filterUnits="objectBoundingBox" x="-100%" y="-100%" width="300%" height="300%"><feGaussianBlur stdDeviation="0 0" edgeMode="duplicate"/></filter><filter id="k" filterUnits="objectBoundingBox" x="-100%" y="-100%" width="300%" height="300%"><feGaussianBlur stdDeviation="0.6 0.6" edgeMode="duplicate"/></filter><mask id="m" mask-type="alpha"><g opacity="1" display="block"><path fill="#00A187" fill-opacity="1" d="M370.25 185.25c0 20.45-3.32 40.12-9.45 58.51-24.48 73.5-93.82 126.49-175.55 126.49-102.17 0-185-82.83-185-185 0-33.03 8.66-64.04 23.83-90.89C55.83 38.18 116.11.25 185.25.25c102.17 0 185 82.83 185 185z" transform="translate(70.75 70.75)"/></g></mask><mask id="q" mask-type="alpha"><path fill="red" fill-opacity="1" d="M395.063 142.563c0-62-64.375-100-171.375-100S51.438 80.687 51.938 149.25c.875 104.375 86.624 151.5 171.812 151.5 85.188 0 171.313-47.187 171.313-158.187z" transform="translate(32.495 88.33)" opacity="1" display="block"/></mask><mask id="u" mask-type="alpha"><g clip-path="url(#a)" filter="url(#b)" transform="translate(183.5 204.5)" opacity="1" display="block"><g opacity="1"><path fill="#11313C" fill-opacity="1" d="M-250 .75h500v-1.5h-500v1.5z" transform="translate(71.25 -202)" opacity="1"/><path fill="#11313C" fill-opacity="1" d="M-250 1.5h500v-3h-500v3z" transform="translate(71.25 -196.571)" opacity="1"/><path fill="#11313C" fill-opacity="1" d="M-250 1.5h500v-3h-500v3z" transform="translate(71.25 -190.392)" opacity="1"/><path fill="#11313C" fill-opacity="1" d="M-250 1.5h500v-3h-500v3z" transform="translate(71.25 -184.213)" opacity="1"/><path fill="#11313C" fill-opacity="1" d="M-250 1.5h500v-3h-500v3z" transform="translate(71.25 -178.034)" opacity="1"/><path fill="#11313C" fill-opacity="1" d="M-250 1.5h500v-3h-500v3z" transform="translate(71.25 -171.855)" opacity="1"/><path fill="#11313C" fill-opacity="1" d="M-250 1.501h500v-3.002h-500v3.002z" transform="translate(71.25 -165.676)" opacity="1"/><path fill="#11313C" fill-opacity="1" d="M-250 1.5h500v-3h-500v3z" transform="translate(71.25 -159.497)" opacity="1"/><path fill="#11313C" fill-opacity="1" d="M-250 1.501h500v-3.002h-500v3.002z" transform="translate(71.25 -153.318)" opacity="1"/><path fill="#11313C" fill-opacity="1" d="M-250 1.5h500v-3h-500v3z" transform="translate(71.25 -147.139)" opacity="1"/><path fill="#11313C" fill-opacity="1" d="M-250 1.501h500v-3.002h-500v3.002z" transform="translate(71.25 -140.96)" opacity="1"/><path fill="#11313C" fill-opacity="1" d="M-250 1.5h500v-3h-500v3z" transform="translate(71.25 -134.781)" opacity="1"/><path fill="#11313C" fill-opacity="1" d="M-250 1.501h500v-3.002h-500v3.002z" transform="translate(71.25 -128.602)" opacity="1"/><path fill="#11313C" fill-opacity="1" d="M-250 1.501h500v-3.002h-500v3.002z" transform="translate(71.25 -122.423)" opacity="1"/><path fill="#11313C" fill-opacity="1" d="M-250 1.5h500v-3h-500v3z" transform="translate(71.25 -116.244)" opacity="1"/><path fill="#11313C" fill-opacity="1" d="M-250 1.501h500v-3.002h-500v3.002z" transform="translate(71.25 -110.064)" opacity="1"/><path fill="#11313C" fill-opacity="1" d="M-250 1.5h500v-3h-500v3z" transform="translate(71.25 -103.886)" opacity="1"/><path fill="#11313C" fill-opacity="1" d="M-250 1.501h500v-3.002h-500v3.002z" transform="translate(71.25 -97.708)" opacity="1"/><path fill="#11313C" fill-opacity="1" d="M-250 1.5h500v-3h-500v3z" transform="translate(71.25 -91.528)" opacity="1"/><path fill="#11313C" fill-opacity="1" d="M-250 1.5h500v-3h-500v3z" transform="translate(71.25 -85.349)" opacity="1"/><path fill="#11313C" fill-opacity="1" d="M-250 1.5h500v-3h-500v3z" transform="translate(71.25 -79.17)" opacity="1"/><path fill="#11313C" fill-opacity="1" d="M-250 1.5h500v-3h-500v3z" transform="translate(71.25 -72.991)" opacity="1"/><path fill="#11313C" fill-opacity="1" d="M-250 1.5h500v-3h-500v3z" transform="translate(71.25 -66.811)" opacity="1"/><path fill="#11313C" fill-opacity="1" d="M-250 1.5h500v-3h-500v3z" transform="translate(71.25 -60.633)" opacity="1"/><path fill="#11313C" fill-opacity="1" d="M-250 1.5h500v-3h-500v3z" transform="translate(71.25 -54.453)" opacity="1"/><path fill="#11313C" fill-opacity="1" d="M-250 1.5h500v-3h-500v3z" transform="translate(71.25 -48.275)" opacity="1"/><path fill="#11313C" fill-opacity="1" d="M-250 1.5h500v-3h-500v3z" transform="translate(71.25 -42.096)" opacity="1"/><path fill="#11313C" fill-opacity="1" d="M-250 1.501h500v-3.002h-500v3.002z" transform="translate(71.25 -35.916)" opacity="1"/><path fill="#11313C" fill-opacity="1" d="M-250 1.5h500v-3h-500v3z" transform="translate(71.25 -29.738)" opacity="1"/><path fill="#11313C" fill-opacity="1" d="M-250 1.501h500v-3.002h-500v3.002z" transform="translate(71.25 -23.559)" opacity="1"/><path fill="#11313C" fill-opacity="1" d="M-250 1.5h500v-3h-500v3z" transform="translate(71.25 -17.38)" opacity="1"/><path fill="#11313C" fill-opacity="1" d="M-250 1.501h500v-3.002h-500v3.002z" transform="translate(71.25 -11.201)" opacity="1"/><path fill="#11313C" fill-opacity="1" d="M-250 1.5h500v-3h-500v3z" transform="translate(71.25 -5.022)" opacity="1"/><path fill="#11313C" fill-opacity="1" d="M-250 1.501h500v-3.002h-500v3.002z" transform="translate(71.25 1.157)" opacity="1"/><path fill="#11313C" fill-opacity="1" d="M-250 1.5h500v-3h-500v3z" transform="translate(71.25 7.336)" opacity="1"/><path fill="#11313C" fill-opacity="1" d="M-250 1.5h500v-3h-500v3z" transform="translate(71.25 13.515)" opacity="1"/><path fill="#11313C" fill-opacity="1" d="M-250 1.5h500v-3h-500v3z" transform="translate(71.25 19.694)" opacity="1"/><path fill="#11313C" fill-opacity="1" d="M-250 1.5h500v-3h-500v3z" transform="translate(71.25 25.873)" opacity="1"/><path fill="#11313C" fill-opacity="1" d="M-250 1.501h500v-3.002h-500v3.002z" transform="translate(71.25 32.053)" opacity="1"/><path fill="#11313C" fill-opacity="1" d="M-250 1.5h500v-3h-500v3z" transform="translate(71.25 38.231)" opacity="1"/><path fill="#11313C" fill-opacity="1" d="M-250 1.5h500v-3h-500v3z" transform="translate(71.25 44.411)" opacity="1"/><path fill="#11313C" fill-opacity="1" d="M-250 1.501h500v-3.002h-500v3.002z" transform="translate(71.25 50.589)" opacity="1"/><path fill="#11313C" fill-opacity="1" d="M-250 1.5h500v-3h-500v3z" transform="translate(71.25 56.769)" opacity="1"/><path fill="#11313C" fill-opacity="1" d="M-250 1.5h500v-3h-500v3z" transform="translate(71.25 62.947)" opacity="1"/><path fill="#11313C" fill-opacity="1" d="M-250 1.501h500v-3.002h-500v3.002z" transform="translate(71.25 69.126)" opacity="1"/><path fill="#11313C" fill-opacity="1" d="M-250 1.5h500v-3h-500v3z" transform="translate(71.25 75.306)" opacity="1"/><path fill="#11313C" fill-opacity="1" d="M-250 1.5h500v-3h-500v3z" transform="translate(71.25 81.484)" opacity="1"/><path fill="#11313C" fill-opacity="1" d="M-250 1.5h500v-3h-500v3z" transform="translate(71.25 87.664)" opacity="1"/><path fill="#11313C" fill-opacity="1" d="M-250 1.501h500v-3.002h-500v3.002z" transform="translate(71.25 93.842)" opacity="1"/><path fill="#11313C" fill-opacity="1" d="M-250 1.5h500v-3h-500v3z" transform="translate(71.25 100.022)" opacity="1"/><path fill="#11313C" fill-opacity="1" d="M-250 1.5h500v-3h-500v3z" transform="translate(71.25 106.2)" opacity="1"/><path fill="#11313C" fill-opacity="1" d="M-250 1.5h500v-3h-500v3z" transform="translate(71.25 112.38)" opacity="1"/><path fill="#11313C" fill-opacity="1" d="M-250 1.501h500v-3.002h-500v3.002z" transform="translate(71.25 118.559)" opacity="1"/><path fill="#11313C" fill-opacity="1" d="M-250 1.5h500v-3h-500v3z" transform="translate(71.25 124.737)" opacity="1"/><path fill="#11313C" fill-opacity="1" d="M-250 1.5h500v-3h-500v3z" transform="translate(71.25 130.917)" opacity="1"/><path fill="#11313C" fill-opacity="1" d="M-250 1.5h500v-3h-500v3z" transform="translate(71.25 137.095)" opacity="1"/><path fill="#11313C" fill-opacity="1" d="M-250 1.501h500V-1.5h-500v3.001z" transform="translate(71.25 143.274)" opacity="1"/><path fill="#11313C" fill-opacity="1" d="M-250 1.5h500v-3h-500v3z" transform="translate(71.25 149.454)" opacity="1"/><path fill="#11313C" fill-opacity="1" d="M-250 1.5h500v-3h-500v3z" transform="translate(71.25 155.633)" opacity="1"/><path fill="#11313C" fill-opacity="1" d="M-250 1.5h500v-3h-500v3z" transform="translate(71.25 161.811)" opacity="1"/><path fill="#11313C" fill-opacity="1" d="M-250 1.501h500V-1.5h-500v3.001z" transform="translate(71.25 167.99)" opacity="1"/><path fill="#11313C" fill-opacity="1" d="M-250 1.5h500v-3h-500v3z" transform="translate(71.25 174.17)" opacity="1"/><path fill="#11313C" fill-opacity="1" d="M-250 1.5h500v-3h-500v3z" transform="translate(71.25 180.348)" opacity="1"/><path fill="#11313C" fill-opacity="1" d="M-250 1.5h500v-3h-500v3z" transform="translate(71.25 186.527)" opacity="1"/><path fill="#11313C" fill-opacity="1" d="M-250 1.501h500V-1.5h-500v3.001z" transform="translate(71.25 192.706)" opacity="1"/><path fill="#11313C" fill-opacity="1" d="M-250 1.5h500v-3h-500v3z" transform="translate(71.25 198.886)" opacity="1"/><path fill="#11313C" fill-opacity="1" d="M-250 1.5h500v-3h-500v3z" transform="translate(71.25 205.064)" opacity="1"/><path fill="#11313C" fill-opacity="1" d="M-250 1.5h500v-3.001h-500V1.5z" transform="translate(71.25 211.244)" opacity="1"/><path fill="#11313C" fill-opacity="1" d="M-250 1.5h500v-3h-500v3z" transform="translate(71.25 217.423)" opacity="1"/><path fill="#11313C" fill-opacity="1" d="M-250 1.5h500v-3h-500v3z" transform="translate(71.25 223.602)" opacity="1"/><path fill="#11313C" fill-opacity="1" d="M-250 1.5h500v-3h-500v3z" transform="translate(71.25 229.781)" opacity="1"/><path fill="#11313C" fill-opacity="1" d="M-250 1.501h500V-1.5h-500v3.001z" transform="translate(71.25 235.959)" opacity="1"/><path fill="#11313C" fill-opacity="1" d="M-250 1.5h500v-3h-500v3z" transform="translate(71.25 242.139)" opacity="1"/><path fill="#11313C" fill-opacity="1" d="M-250 1.5h500v-3h-500v3z" transform="translate(71.25 248.318)" opacity="1"/><path fill="#11313C" fill-opacity="1" d="M-250 1.5h500v-3h-500v3z" transform="translate(71.25 254.497)" opacity="1"/><path fill="#11313C" fill-opacity="1" d="M-250 1.501h500V-1.5h-500v3.001z" transform="translate(71.25 260.675)" opacity="1"/><path fill="#11313C" fill-opacity="1" d="M-250 1.5h500v-3h-500v3z" transform="translate(71.25 266.855)" opacity="1"/><path fill="#11313C" fill-opacity="1" d="M-250 1.5h500v-3h-500v3z" transform="translate(71.25 273.034)" opacity="1"/><path fill="#11313C" fill-opacity="1" d="M-250 1.5h500v-3h-500v3z" transform="translate(71.25 279.212)" opacity="1"/><path fill="#11313C" fill-opacity="1" d="M-250 1.501h500V-1.5h-500v3.001z" transform="translate(71.25 285.391)" opacity="1"/><path fill="#11313C" fill-opacity="1" d="M-250 1.5h500v-3h-500v3z" transform="translate(71.25 291.571)" opacity="1"/><path fill="#11313C" fill-opacity="1" d="M-250 .5h500v-1h-500v1z" transform="translate(71.25 296.75)" opacity="1"/></g></g></mask><mask id="x" mask-type="alpha"><g clip-path="url(#c)" filter="url(#d)" transform="translate(183.5 204.5)" opacity="1" display="block"><g opacity="1"><path fill="#11313C" fill-opacity="1" d="M-250 .75h500v-1.5h-500v1.5z" transform="translate(71.25 -202)" opacity="1"/><path fill="#11313C" fill-opacity="1" d="M-250 1.5h500v-3h-500v3z" transform="translate(71.25 -196.571)" opacity="1"/><path fill="#11313C" fill-opacity="1" d="M-250 1.5h500v-3h-500v3z" transform="translate(71.25 -190.392)" opacity="1"/><path fill="#11313C" fill-opacity="1" d="M-250 1.5h500v-3h-500v3z" transform="translate(71.25 -184.213)" opacity="1"/><path fill="#11313C" fill-opacity="1" d="M-250 1.5h500v-3h-500v3z" transform="translate(71.25 -178.034)" opacity="1"/><path fill="#11313C" fill-opacity="1" d="M-250 1.5h500v-3h-500v3z" transform="translate(71.25 -171.855)" opacity="1"/><path fill="#11313C" fill-opacity="1" d="M-250 1.501h500v-3.002h-500v3.002z" transform="translate(71.25 -165.676)" opacity="1"/><path fill="#11313C" fill-opacity="1" d="M-250 1.5h500v-3h-500v3z" transform="translate(71.25 -159.497)" opacity="1"/><path fill="#11313C" fill-opacity="1" d="M-250 1.501h500v-3.002h-500v3.002z" transform="translate(71.25 -153.318)" opacity="1"/><path fill="#11313C" fill-opacity="1" d="M-250 1.5h500v-3h-500v3z" transform="translate(71.25 -147.139)" opacity="1"/><path fill="#11313C" fill-opacity="1" d="M-250 1.501h500v-3.002h-500v3.002z" transform="translate(71.25 -140.96)" opacity="1"/><path fill="#11313C" fill-opacity="1" d="M-250 1.5h500v-3h-500v3z" transform="translate(71.25 -134.781)" opacity="1"/><path fill="#11313C" fill-opacity="1" d="M-250 1.501h500v-3.002h-500v3.002z" transform="translate(71.25 -128.602)" opacity="1"/><path fill="#11313C" fill-opacity="1" d="M-250 1.501h500v-3.002h-500v3.002z" transform="translate(71.25 -122.423)" opacity="1"/><path fill="#11313C" fill-opacity="1" d="M-250 1.5h500v-3h-500v3z" transform="translate(71.25 -116.244)" opacity="1"/><path fill="#11313C" fill-opacity="1" d="M-250 1.501h500v-3.002h-500v3.002z" transform="translate(71.25 -110.064)" opacity="1"/><path fill="#11313C" fill-opacity="1" d="M-250 1.5h500v-3h-500v3z" transform="translate(71.25 -103.886)" opacity="1"/><path fill="#11313C" fill-opacity="1" d="M-250 1.501h500v-3.002h-500v3.002z" transform="translate(71.25 -97.708)" opacity="1"/><path fill="#11313C" fill-opacity="1" d="M-250 1.5h500v-3h-500v3z" transform="translate(71.25 -91.528)" opacity="1"/><path fill="#11313C" fill-opacity="1" d="M-250 1.5h500v-3h-500v3z" transform="translate(71.25 -85.349)" opacity="1"/><path fill="#11313C" fill-opacity="1" d="M-250 1.5h500v-3h-500v3z" transform="translate(71.25 -79.17)" opacity="1"/><path fill="#11313C" fill-opacity="1" d="M-250 1.5h500v-3h-500v3z" transform="translate(71.25 -72.991)" opacity="1"/><path fill="#11313C" fill-opacity="1" d="M-250 1.5h500v-3h-500v3z" transform="translate(71.25 -66.811)" opacity="1"/><path fill="#11313C" fill-opacity="1" d="M-250 1.5h500v-3h-500v3z" transform="translate(71.25 -60.633)" opacity="1"/><path fill="#11313C" fill-opacity="1" d="M-250 1.5h500v-3h-500v3z" transform="translate(71.25 -54.453)" opacity="1"/><path fill="#11313C" fill-opacity="1" d="M-250 1.5h500v-3h-500v3z" transform="translate(71.25 -48.275)" opacity="1"/><path fill="#11313C" fill-opacity="1" d="M-250 1.5h500v-3h-500v3z" transform="translate(71.25 -42.096)" opacity="1"/><path fill="#11313C" fill-opacity="1" d="M-250 1.501h500v-3.002h-500v3.002z" transform="translate(71.25 -35.916)" opacity="1"/><path fill="#11313C" fill-opacity="1" d="M-250 1.5h500v-3h-500v3z" transform="translate(71.25 -29.738)" opacity="1"/><path fill="#11313C" fill-opacity="1" d="M-250 1.501h500v-3.002h-500v3.002z" transform="translate(71.25 -23.559)" opacity="1"/><path fill="#11313C" fill-opacity="1" d="M-250 1.5h500v-3h-500v3z" transform="translate(71.25 -17.38)" opacity="1"/><path fill="#11313C" fill-opacity="1" d="M-250 1.501h500v-3.002h-500v3.002z" transform="translate(71.25 -11.201)" opacity="1"/><path fill="#11313C" fill-opacity="1" d="M-250 1.5h500v-3h-500v3z" transform="translate(71.25 -5.022)" opacity="1"/><path fill="#11313C" fill-opacity="1" d="M-250 1.501h500v-3.002h-500v3.002z" transform="translate(71.25 1.157)" opacity="1"/><path fill="#11313C" fill-opacity="1" d="M-250 1.5h500v-3h-500v3z" transform="translate(71.25 7.336)" opacity="1"/><path fill="#11313C" fill-opacity="1" d="M-250 1.5h500v-3h-500v3z" transform="translate(71.25 13.515)" opacity="1"/><path fill="#11313C" fill-opacity="1" d="M-250 1.5h500v-3h-500v3z" transform="translate(71.25 19.694)" opacity="1"/><path fill="#11313C" fill-opacity="1" d="M-250 1.5h500v-3h-500v3z" transform="translate(71.25 25.873)" opacity="1"/><path fill="#11313C" fill-opacity="1" d="M-250 1.501h500v-3.002h-500v3.002z" transform="translate(71.25 32.053)" opacity="1"/><path fill="#11313C" fill-opacity="1" d="M-250 1.5h500v-3h-500v3z" transform="translate(71.25 38.231)" opacity="1"/><path fill="#11313C" fill-opacity="1" d="M-250 1.5h500v-3h-500v3z" transform="translate(71.25 44.411)" opacity="1"/><path fill="#11313C" fill-opacity="1" d="M-250 1.501h500v-3.002h-500v3.002z" transform="translate(71.25 50.589)" opacity="1"/><path fill="#11313C" fill-opacity="1" d="M-250 1.5h500v-3h-500v3z" transform="translate(71.25 56.769)" opacity="1"/><path fill="#11313C" fill-opacity="1" d="M-250 1.5h500v-3h-500v3z" transform="translate(71.25 62.947)" opacity="1"/><path fill="#11313C" fill-opacity="1" d="M-250 1.501h500v-3.002h-500v3.002z" transform="translate(71.25 69.126)" opacity="1"/><path fill="#11313C" fill-opacity="1" d="M-250 1.5h500v-3h-500v3z" transform="translate(71.25 75.306)" opacity="1"/><path fill="#11313C" fill-opacity="1" d="M-250 1.5h500v-3h-500v3z" transform="translate(71.25 81.484)" opacity="1"/><path fill="#11313C" fill-opacity="1" d="M-250 1.5h500v-3h-500v3z" transform="translate(71.25 87.664)" opacity="1"/><path fill="#11313C" fill-opacity="1" d="M-250 1.501h500v-3.002h-500v3.002z" transform="translate(71.25 93.842)" opacity="1"/><path fill="#11313C" fill-opacity="1" d="M-250 1.5h500v-3h-500v3z" transform="translate(71.25 100.022)" opacity="1"/><path fill="#11313C" fill-opacity="1" d="M-250 1.5h500v-3h-500v3z" transform="translate(71.25 106.2)" opacity="1"/><path fill="#11313C" fill-opacity="1" d="M-250 1.5h500v-3h-500v3z" transform="translate(71.25 112.38)" opacity="1"/><path fill="#11313C" fill-opacity="1" d="M-250 1.501h500v-3.002h-500v3.002z" transform="translate(71.25 118.559)" opacity="1"/><path fill="#11313C" fill-opacity="1" d="M-250 1.5h500v-3h-500v3z" transform="translate(71.25 124.737)" opacity="1"/><path fill="#11313C" fill-opacity="1" d="M-250 1.5h500v-3h-500v3z" transform="translate(71.25 130.917)" opacity="1"/><path fill="#11313C" fill-opacity="1" d="M-250 1.5h500v-3h-500v3z" transform="translate(71.25 137.095)" opacity="1"/><path fill="#11313C" fill-opacity="1" d="M-250 1.501h500V-1.5h-500v3.001z" transform="translate(71.25 143.274)" opacity="1"/><path fill="#11313C" fill-opacity="1" d="M-250 1.5h500v-3h-500v3z" transform="translate(71.25 149.454)" opacity="1"/><path fill="#11313C" fill-opacity="1" d="M-250 1.5h500v-3h-500v3z" transform="translate(71.25 155.633)" opacity="1"/><path fill="#11313C" fill-opacity="1" d="M-250 1.5h500v-3h-500v3z" transform="translate(71.25 161.811)" opacity="1"/><path fill="#11313C" fill-opacity="1" d="M-250 1.501h500V-1.5h-500v3.001z" transform="translate(71.25 167.99)" opacity="1"/><path fill="#11313C" fill-opacity="1" d="M-250 1.5h500v-3h-500v3z" transform="translate(71.25 174.17)" opacity="1"/><path fill="#11313C" fill-opacity="1" d="M-250 1.5h500v-3h-500v3z" transform="translate(71.25 180.348)" opacity="1"/><path fill="#11313C" fill-opacity="1" d="M-250 1.5h500v-3h-500v3z" transform="translate(71.25 186.527)" opacity="1"/><path fill="#11313C" fill-opacity="1" d="M-250 1.501h500V-1.5h-500v3.001z" transform="translate(71.25 192.706)" opacity="1"/><path fill="#11313C" fill-opacity="1" d="M-250 1.5h500v-3h-500v3z" transform="translate(71.25 198.886)" opacity="1"/><path fill="#11313C" fill-opacity="1" d="M-250 1.5h500v-3h-500v3z" transform="translate(71.25 205.064)" opacity="1"/><path fill="#11313C" fill-opacity="1" d="M-250 1.5h500v-3.001h-500V1.5z" transform="translate(71.25 211.244)" opacity="1"/><path fill="#11313C" fill-opacity="1" d="M-250 1.5h500v-3h-500v3z" transform="translate(71.25 217.423)" opacity="1"/><path fill="#11313C" fill-opacity="1" d="M-250 1.5h500v-3h-500v3z" transform="translate(71.25 223.602)" opacity="1"/><path fill="#11313C" fill-opacity="1" d="M-250 1.5h500v-3h-500v3z" transform="translate(71.25 229.781)" opacity="1"/><path fill="#11313C" fill-opacity="1" d="M-250 1.501h500V-1.5h-500v3.001z" transform="translate(71.25 235.959)" opacity="1"/><path fill="#11313C" fill-opacity="1" d="M-250 1.5h500v-3h-500v3z" transform="translate(71.25 242.139)" opacity="1"/><path fill="#11313C" fill-opacity="1" d="M-250 1.5h500v-3h-500v3z" transform="translate(71.25 248.318)" opacity="1"/><path fill="#11313C" fill-opacity="1" d="M-250 1.5h500v-3h-500v3z" transform="translate(71.25 254.497)" opacity="1"/><path fill="#11313C" fill-opacity="1" d="M-250 1.501h500V-1.5h-500v3.001z" transform="translate(71.25 260.675)" opacity="1"/><path fill="#11313C" fill-opacity="1" d="M-250 1.5h500v-3h-500v3z" transform="translate(71.25 266.855)" opacity="1"/><path fill="#11313C" fill-opacity="1" d="M-250 1.5h500v-3h-500v3z" transform="translate(71.25 273.034)" opacity="1"/><path fill="#11313C" fill-opacity="1" d="M-250 1.5h500v-3h-500v3z" transform="translate(71.25 279.212)" opacity="1"/><path fill="#11313C" fill-opacity="1" d="M-250 1.501h500V-1.5h-500v3.001z" transform="translate(71.25 285.391)" opacity="1"/><path fill="#11313C" fill-opacity="1" d="M-250 1.5h500v-3h-500v3z" transform="translate(71.25 291.571)" opacity="1"/><path fill="#11313C" fill-opacity="1" d="M-250 .5h500v-1h-500v1z" transform="translate(71.25 296.75)" opacity="1"/></g></g></mask><mask id="C"><path fill="url(#e)" d="M256-256v512h-512v-512h512z"/></mask><mask id="A" mask-type="alpha"><g clip-path="url(#f)" filter="url(#g)" transform="translate(255 254.5)" opacity="1" display="block"><path fill="red" fill-opacity="1" d="M236.5-236.5v473h-473v-473h473z"/></g></mask><mask id="F"><path fill="url(#h)" d="M256-256v512h-512v-512h512z"/></mask><mask id="D" mask-type="alpha"><g clip-path="url(#i)" filter="url(#j)" transform="translate(255 254.5)" opacity="1" display="block"><path fill="red" fill-opacity="1" d="M236.5-236.5v473h-473v-473h473z"/></g></mask><mask id="I" mask-type="alpha"><g filter="url(#k)" transform="translate(32.495 88.33)" opacity="1" display="block"><path stroke-linecap="butt" stroke-linejoin="miter" fill-opacity="0" stroke-miterlimit="4" stroke="#6BD89E" stroke-opacity="1" stroke-width="1" d="M394.813 142.563c0-62-65.562-100.375-171.375-100.25-108.75.125-171.75 38.374-171.75 106.937 0 104.25 88.374 150.875 171.812 150.875 83.438 0 171.313-46.562 171.313-157.562z"/></g></mask><clipPath id="l"><path d="M0 0h512v512H0z"/></clipPath><clipPath id="o"><path fill="#fff" clip-rule="nonzero" d="M157.25-8.25c0 20.446-3.317 40.12-9.448 58.51-24.481 73.498-93.826 126.49-175.552 126.49-102.172 0-185-82.827-185-185 0-33.034 8.656-64.042 23.831-90.885 31.746-56.187 92.03-94.115 161.169-94.115 102.173 0 185 82.828 185 185" fill-opacity="1"/></clipPath><clipPath id="s"><path fill="#fff" clip-rule="nonzero" d="M237.875 28.875C237.125-36.688 170.751-67 72.563-67-25.625-67-94-37.625-94.75 27.938c-1.188 99.813 83.5 147.938 167.313 146.875 83.625-1 166.437-50.063 165.312-145.938" fill-opacity="1"/></clipPath><clipPath id="a"><path fill="#fff" clip-rule="nonzero" d="M237.875 28.875C237.125-36.688 170.751-67 72.563-67-25.625-67-94-37.625-94.75 27.938c-1.188 99.813 83.5 147.938 167.313 146.875 83.625-1 166.437-50.063 165.312-145.938" fill-opacity="1"/></clipPath><clipPath id="c"><path fill="#fff" clip-rule="nonzero" d="M237.875 28.875C237.125-36.688 170.751-67 72.563-67-25.625-67-94-37.625-94.75 27.938c-1.188 99.813 83.5 147.938 167.313 146.875 83.625-1 166.437-50.063 165.312-145.938" fill-opacity="1"/></clipPath><clipPath id="f"><path fill="#fff" clip-rule="nonzero" d="M166.375-21.125C165.625-86.688 99.251-117 1.063-117-97.125-117-165.5-87.626-166.25-22.063c-1.188 99.813 83.5 147.939 167.313 146.876 83.625-1 166.437-50.063 165.312-145.938" fill-opacity="1"/></clipPath><clipPath id="i"><path fill="#fff" clip-rule="nonzero" d="M166.375-21.125C165.625-86.688 99.251-117 1.063-117-97.125-117-165.5-87.626-166.25-22.063c-1.188 99.813 83.5 147.939 167.313 146.876 83.625-1 166.437-50.063 165.312-145.938" fill-opacity="1"/></clipPath><clipPath id="G"><path fill="#fff" clip-rule="nonzero" d="M389.625 178.625c-1.5-65.313-68.375-97.062-166.375-97.187C121.625 81.313 55.751 112.625 55.063 179 54 277.75 134.25 326.125 223.188 326.125c86.563 0 168.5-55.687 166.437-147.5" fill-opacity="1"/></clipPath><radialGradient id="w" spreadMethod="pad" gradientUnits="userSpaceOnUse" cx=".292" cy="-45.607" r="93.274" fx=".292" fy="-45.607"><stop offset="0%" stop-color="#E3FFF2"/><stop offset="22%" stop-color="#71FFBC"/><stop offset="40%" stop-color="#00FF87"/><stop offset="75%" stop-color="#1AA873"/><stop offset="100%" stop-color="#34505F"/></radialGradient><radialGradient id="B" spreadMethod="pad" gradientUnits="userSpaceOnUse" cx="100.684" cy="-86.361" r="343.134" fx="99.043" fy="-83.992"><stop offset="0%" stop-color="#A5F9D7"/><stop offset="7%" stop-color="#539181"/><stop offset="27%" stop-color="#01292B"/></radialGradient><radialGradient id="e" spreadMethod="pad" gradientUnits="userSpaceOnUse" cx="100.684" cy="-86.361" r="343.134" fx="99.043" fy="-83.992"><stop stop-color="#FFF" offset="0%" stop-opacity="1"/><stop stop-color="#FFF" offset="18%" stop-opacity=".535"/><stop stop-color="#FFF" offset="45%" stop-opacity=".07"/></radialGradient><radialGradient id="E" spreadMethod="pad" gradientUnits="userSpaceOnUse" cx="89.762" cy="-95.512" r="244.154" fx="89.762" fy="-95.512"><stop offset="87%" stop-color="#01292B"/><stop offset="90%" stop-color="#549484"/><stop offset="100%" stop-color="#A7FFDE"/></radialGradient><radialGradient id="h" spreadMethod="pad" gradientUnits="userSpaceOnUse" cx="89.762" cy="-95.512" r="244.154" fx="89.762" fy="-95.512"><stop stop-color="#FFF" offset="0%" stop-opacity="0"/><stop stop-color="#FFF" offset="40%" stop-opacity=".035"/><stop stop-color="#FFF" offset="100%" stop-opacity=".07"/></radialGradient><linearGradient id="n" spreadMethod="pad" gradientUnits="userSpaceOnUse" x1="125.715" y1="-177.375" x2="-108.02" y2="176.602"><stop offset="0%" stop-color="#76D28D"/><stop offset="64%" stop-color="#44866E"/><stop offset="100%" stop-color="#12394E"/></linearGradient><linearGradient id="r" spreadMethod="pad" gradientUnits="userSpaceOnUse" x1="125.715" y1="-177.375" x2="-108.02" y2="176.602"><stop offset="0%" stop-color="#76D28D"/><stop offset="64%" stop-color="#44866E"/><stop offset="100%" stop-color="#12394E"/></linearGradient><linearGradient id="z" spreadMethod="pad" gradientUnits="userSpaceOnUse" x1=".292" y1="-45.607" x2="-.94" y2="47.659"><stop offset="0%" stop-color="#E3FFF2"/><stop offset="22%" stop-color="#71FFBC"/><stop offset="40%" stop-color="#00FF87"/><stop offset="75%" stop-color="#1AA873"/><stop offset="100%" stop-color="#34505F"/></linearGradient><linearGradient id="J" spreadMethod="pad" gradientUnits="userSpaceOnUse" x1="247.176" y1="60.316" x2="-122.887" y2="-174.717"><stop offset="10%" stop-color="#5D9E6F"/><stop offset="21%" stop-color="#79BA87"/><stop offset="31%" stop-color="#94D7A0"/><stop offset="41%" stop-color="#B4E5B4"/><stop offset="54%" stop-color="#D3F4C7"/><stop offset="71%" stop-color="#ABE39F"/><stop offset="83%" stop-color="#82D276"/><stop offset="91%" stop-color="#6FB872"/><stop offset="100%" stop-color="#5D9E6F"/></linearGradient></defs><g clip-path="url(#l)"><g mask="url(#m)" display="block"><path fill="url(#n)" fill-opacity="1" d="M250-250v500h-500v-500h500z" transform="translate(256 256)" opacity="1"/></g><g clip-path="url(#o)" filter="url(#p)" transform="translate(284 264.299)" opacity=".82" display="block"><path fill="#F1FFF5" fill-opacity="1" d="M74.85-156.834c7.623 3.4 12.461 9.188 10.798 12.917-1.663 3.73-9.202 3.998-16.825.599-7.622-3.4-12.46-9.188-10.797-12.917 1.663-3.73 9.202-3.998 16.825-.599z" opacity="1"/></g><g mask="url(#q)" display="block"><path fill="url(#r)" fill-opacity="1" d="M250-250v500h-500v-500h500z" transform="rotate(180 128 128)" opacity="1"/></g><path fill="#0E2831" fill-opacity="1" d="M422.69 233.036c-.75-66.313-67.692-97.041-166.629-97.041-98.938 0-167.895 29.735-168.645 96.048-1.188 101 84.041 149.693 168.578 148.63 84.332-1.063 167.821-50.637 166.696-147.637z" opacity="1" display="block"/><g clip-path="url(#s)" filter="url(#t)" transform="translate(183.5 204.5)" opacity="1" display="block"><g opacity="1"><path fill="#11313C" fill-opacity="1" d="M-178.75-201.25h500v-1.5h-500v1.5zM-178.75-195.071h500v-3h-500v3zM-178.75-188.892h500v-3h-500v3zM-178.75-182.713h500v-3h-500v3zM-178.75-176.534h500v-3h-500v3zM-178.75-170.355h500v-3h-500v3zM-178.75-164.175h500v-3.002h-500v3.002zM-178.75-157.997h500v-3h-500v3zM-178.75-151.817h500v-3.002h-500v3.002zM-178.75-145.639h500v-3h-500v3zM-178.75-139.459h500v-3.002h-500v3.002zM-178.75-133.281h500v-3h-500v3zM-178.75-127.101h500v-3.002h-500v3.002zM-178.75-120.922h500v-3.002h-500v3.002zM-178.75-114.744h500v-3h-500v3zM-178.75-108.563h500v-3.002h-500v3.002zM-178.75-102.386h500v-3h-500v3zM-178.75-96.207h500v-3.002h-500v3.002zM-178.75-90.028h500v-3h-500v3zM-178.75-83.849h500v-3h-500v3zM-178.75-77.67h500v-3h-500v3zM-178.75-71.491h500v-3h-500v3zM-178.75-65.311h500v-3h-500v3zM-178.75-59.133h500v-3h-500v3zM-178.75-52.953h500v-3h-500v3zM-178.75-46.775h500v-3h-500v3zM-178.75-40.596h500v-3h-500v3zM-178.75-34.415h500v-3.002h-500v3.002zM-178.75-28.238h500v-3h-500v3zM-178.75-22.058h500v-3.002h-500v3.002zM-178.75-15.88h500v-3h-500v3zM-178.75-9.7h500v-3.002h-500V-9.7zM-178.75-3.522h500v-3h-500v3zM-178.75 2.658h500V-.344h-500v3.002zM-178.75 8.836h500v-3h-500v3zM-178.75 15.015h500v-3h-500v3zM-178.75 21.194h500v-3h-500v3zM-178.75 27.373h500v-3h-500v3zM-178.75 33.554h500v-3.002h-500v3.002zM-178.75 39.731h500v-3h-500v3zM-178.75 45.911h500v-3h-500v3zM-178.75 52.09h500v-3.002h-500v3.002zM-178.75 58.269h500v-3h-500v3zM-178.75 64.447h500v-3h-500v3zM-178.75 70.627h500v-3.002h-500v3.002zM-178.75 76.806h500v-3h-500v3zM-178.75 82.984h500v-3h-500v3zM-178.75 89.164h500v-3h-500v3zM-178.75 95.343h500v-3.002h-500v3.002zM-178.75 101.522h500v-3h-500v3zM-178.75 107.7h500v-3h-500v3zM-178.75 113.88h500v-3h-500v3zM-178.75 120.06h500v-3.002h-500v3.002zM-178.75 126.237h500v-3h-500v3zM-178.75 132.417h500v-3h-500v3zM-178.75 138.595h500v-3h-500v3zM-178.75 144.775h500v-3.001h-500v3.001zM-178.75 150.954h500v-3h-500v3zM-178.75 157.133h500v-3h-500v3zM-178.75 163.311h500v-3h-500v3zM-178.75 169.491h500v-3.001h-500v3.001zM-178.75 175.67h500v-3h-500v3zM-178.75 181.848h500v-3h-500v3zM-178.75 188.027h500v-3h-500v3zM-178.75 194.207h500v-3.001h-500v3.001zM-178.75 200.386h500v-3h-500v3zM-178.75 206.564h500v-3h-500v3zM-178.75 212.744h500v-3.001h-500v3.001zM-178.75 218.923h500v-3h-500v3zM-178.75 225.102h500v-3h-500v3zM-178.75 231.281h500v-3h-500v3zM-178.75 237.46h500v-3.001h-500v3.001zM-178.75 243.639h500v-3h-500v3zM-178.75 249.818h500v-3h-500v3zM-178.75 255.997h500v-3h-500v3zM-178.75 262.176h500v-3.001h-500v3.001zM-178.75 268.355h500v-3h-500v3zM-178.75 274.534h500v-3h-500v3zM-178.75 280.712h500v-3h-500v3zM-178.75 286.892h500v-3.001h-500v3.001zM-178.75 293.071h500v-3h-500v3zM-178.75 297.25h500v-1h-500v1z" opacity="1"/></g></g><g mask="url(#u)" display="block"><g filter="url(#v)" transform="rotate(-3 5074.57 -1843.154)" opacity="1"><path fill="url(#w)" fill-opacity="1" d="M0-45.872c14.61 0 26.454 20.538 26.454 45.872S14.61 45.872 0 45.872c-14.61 0-26.454-20.538-26.454-45.872S-14.61-45.872 0-45.872z" transform="matrix(1.10202 0 0 1.05705 108.653 13.873)" opacity="1"/></g></g><g mask="url(#x)" display="block"><g filter="url(#y)" transform="rotate(3 -4648.893 3834.596)" opacity="1"><path fill="url(#z)" fill-opacity="1" d="M0-45.872c14.61 0 26.454 20.538 26.454 45.872S14.61 45.872 0 45.872c-14.61 0-26.454-20.538-26.454-45.872S-14.61-45.872 0-45.872z" transform="matrix(1.10202 0 0 1.05705 108.653 13.873)" opacity="1"/></g></g><g opacity=".6" mask="url(#A)" display="block"><path fill="url(#B)" mask="url(#C)" fill-opacity="1" d="M256-256v512h-512v-512h512z" transform="translate(255 256)" opacity="1"/></g><g mask="url(#D)" display="block"><path fill="url(#E)" mask="url(#F)" fill-opacity="1" d="M256-256v512h-512v-512h512z" transform="translate(255 256)" opacity="1"/></g><g clip-path="url(#G)" filter="url(#H)" transform="translate(32.84 54.711)" opacity=".06" display="block"><path stroke-linecap="round" stroke-linejoin="miter" stroke-miterlimit="4" stroke-dasharray="48 46 2" stroke-dashoffset="0" stroke="#7FFFE2" stroke-opacity="1" stroke-width="27" d="M359.87 155.918c-18.91-27.133-63.285-45.895-106.245-52.186" fill="none"/></g><g mask="url(#I)" display="block"><path fill="url(#J)" fill-opacity="1" d="M250-250v500h-500v-500h500z" transform="rotate(180 128 128)" opacity="1"/></g></g></svg>